<svg width="392" height="22" viewBox="0 0 392 22" fill="none" xmlns="http://www.w3.org/2000/svg">
<line x1="281.479" y1="21.5" x2="391.479" y2="21.5" stroke="black"/>
<path d="M286.825 17.18C286.153 17.18 285.529 17.054 284.953 16.802C284.389 16.538 283.897 16.184 283.477 15.74C283.069 15.284 282.751 14.768 282.523 14.192C282.295 13.604 282.181 12.986 282.181 12.338C282.181 11.666 282.295 11.042 282.523 10.466C282.751 9.878 283.075 9.362 283.495 8.918C283.915 8.462 284.407 8.108 284.971 7.856C285.547 7.592 286.171 7.46 286.843 7.46C287.515 7.46 288.133 7.592 288.697 7.856C289.261 8.108 289.753 8.462 290.173 8.918C290.593 9.362 290.917 9.878 291.145 10.466C291.373 11.042 291.487 11.666 291.487 12.338C291.487 12.986 291.373 13.604 291.145 14.192C290.917 14.768 290.593 15.284 290.173 15.74C289.765 16.184 289.273 16.538 288.697 16.802C288.133 17.054 287.509 17.18 286.825 17.18ZM283.423 12.356C283.423 13.052 283.573 13.688 283.873 14.264C284.185 14.828 284.599 15.278 285.115 15.614C285.631 15.938 286.201 16.1 286.825 16.1C287.449 16.1 288.019 15.932 288.535 15.596C289.051 15.26 289.465 14.804 289.777 14.228C290.089 13.64 290.245 13.004 290.245 12.32C290.245 11.624 290.089 10.988 289.777 10.412C289.465 9.836 289.051 9.38 288.535 9.044C288.019 8.708 287.449 8.54 286.825 8.54C286.201 8.54 285.631 8.714 285.115 9.062C284.611 9.41 284.203 9.872 283.891 10.448C283.579 11.012 283.423 11.648 283.423 12.356ZM297.836 17.18C296.324 17.18 295.178 16.718 294.398 15.794C293.63 14.858 293.246 13.568 293.246 11.924C293.246 10.76 293.342 9.776 293.534 8.972C293.726 8.168 294.008 7.508 294.38 6.992C294.752 6.464 295.208 6.032 295.748 5.696C296.3 5.36 296.93 5.084 297.638 4.868L301.58 3.572L301.688 4.634L297.89 5.876C297.17 6.116 296.57 6.422 296.09 6.794C295.61 7.166 295.232 7.64 294.956 8.216C294.692 8.78 294.518 9.518 294.434 10.43C294.746 9.734 295.226 9.2 295.874 8.828C296.522 8.444 297.272 8.252 298.124 8.252C299.036 8.252 299.81 8.438 300.446 8.81C301.094 9.182 301.586 9.698 301.922 10.358C302.258 11.018 302.426 11.78 302.426 12.644C302.426 13.556 302.246 14.354 301.886 15.038C301.538 15.71 301.022 16.238 300.338 16.622C299.666 16.994 298.832 17.18 297.836 17.18ZM297.836 16.1C298.904 16.1 299.726 15.794 300.302 15.182C300.89 14.558 301.184 13.73 301.184 12.698C301.184 11.69 300.896 10.868 300.32 10.232C299.756 9.596 298.928 9.278 297.836 9.278C297.212 9.278 296.648 9.41 296.144 9.674C295.64 9.938 295.238 10.322 294.938 10.826C294.65 11.33 294.506 11.954 294.506 12.698C294.506 13.346 294.632 13.928 294.884 14.444C295.148 14.96 295.526 15.368 296.018 15.668C296.51 15.956 297.116 16.1 297.836 16.1ZM308.317 14.3C308.317 13.712 308.485 13.208 308.821 12.788C309.157 12.356 309.619 12.026 310.207 11.798C310.807 11.558 311.497 11.438 312.277 11.438C312.733 11.438 313.207 11.474 313.699 11.546C314.191 11.618 314.629 11.726 315.013 11.87V11.078C315.013 10.286 314.779 9.656 314.311 9.188C313.843 8.72 313.195 8.486 312.367 8.486C311.863 8.486 311.365 8.582 310.873 8.774C310.393 8.954 309.889 9.224 309.361 9.584L308.893 8.72C309.505 8.3 310.105 7.988 310.693 7.784C311.281 7.568 311.881 7.46 312.493 7.46C313.645 7.46 314.557 7.79 315.229 8.45C315.901 9.11 316.237 10.022 316.237 11.186V15.524C316.237 15.692 316.273 15.818 316.345 15.902C316.417 15.974 316.531 16.016 316.687 16.028V17C316.555 17.012 316.441 17.024 316.345 17.036C316.249 17.048 316.177 17.048 316.129 17.036C315.829 17.024 315.601 16.928 315.445 16.748C315.289 16.568 315.205 16.376 315.193 16.172L315.175 15.488C314.755 16.028 314.209 16.448 313.537 16.748C312.865 17.036 312.181 17.18 311.485 17.18C310.885 17.18 310.339 17.054 309.847 16.802C309.367 16.538 308.989 16.19 308.713 15.758C308.449 15.314 308.317 14.828 308.317 14.3ZM314.599 15.02C314.731 14.852 314.833 14.69 314.905 14.534C314.977 14.378 315.013 14.24 315.013 14.12V12.752C314.605 12.596 314.179 12.476 313.735 12.392C313.303 12.308 312.865 12.266 312.421 12.266C311.545 12.266 310.837 12.44 310.297 12.788C309.757 13.136 309.487 13.61 309.487 14.21C309.487 14.558 309.577 14.888 309.757 15.2C309.937 15.5 310.201 15.752 310.549 15.956C310.897 16.148 311.305 16.244 311.773 16.244C312.361 16.244 312.907 16.13 313.411 15.902C313.927 15.674 314.323 15.38 314.599 15.02ZM319.626 20.924C319.422 20.924 319.212 20.888 318.996 20.816C318.792 20.756 318.582 20.666 318.366 20.546L318.816 19.682C318.948 19.754 319.068 19.814 319.176 19.862C319.296 19.91 319.422 19.934 319.554 19.934C319.866 19.934 320.16 19.778 320.436 19.466C320.712 19.154 320.976 18.698 321.228 18.098L321.696 16.928L317.52 7.622H318.816L322.254 15.74L325.422 7.622H326.646L322.182 18.476C321.942 19.04 321.69 19.502 321.426 19.862C321.162 20.222 320.88 20.486 320.58 20.654C320.28 20.834 319.962 20.924 319.626 20.924ZM328.338 17V7.622H329.562V11.636H330.966L334.116 7.622H335.52L331.938 12.176L335.97 17H334.53L330.966 12.77H329.562V17H328.338ZM345.178 19.178V17H337.69V7.622H338.914V15.92H343.774V7.622H344.998V15.92H346.276V19.178H345.178ZM348.113 17V7.64H349.337V15.344L355.043 7.622H356.141V17H354.917V9.422L349.301 17H348.113ZM362.815 17.18C362.143 17.18 361.519 17.054 360.943 16.802C360.379 16.538 359.887 16.184 359.467 15.74C359.059 15.284 358.741 14.768 358.513 14.192C358.285 13.604 358.171 12.986 358.171 12.338C358.171 11.666 358.285 11.042 358.513 10.466C358.741 9.878 359.065 9.362 359.485 8.918C359.905 8.462 360.397 8.108 360.961 7.856C361.537 7.592 362.161 7.46 362.833 7.46C363.505 7.46 364.123 7.592 364.687 7.856C365.251 8.108 365.743 8.462 366.163 8.918C366.583 9.362 366.907 9.878 367.135 10.466C367.363 11.042 367.477 11.666 367.477 12.338C367.477 12.986 367.363 13.604 367.135 14.192C366.907 14.768 366.583 15.284 366.163 15.74C365.755 16.184 365.263 16.538 364.687 16.802C364.123 17.054 363.499 17.18 362.815 17.18ZM359.413 12.356C359.413 13.052 359.563 13.688 359.863 14.264C360.175 14.828 360.589 15.278 361.105 15.614C361.621 15.938 362.191 16.1 362.815 16.1C363.439 16.1 364.009 15.932 364.525 15.596C365.041 15.26 365.455 14.804 365.767 14.228C366.079 13.64 366.235 13.004 366.235 12.32C366.235 11.624 366.079 10.988 365.767 10.412C365.455 9.836 365.041 9.38 364.525 9.044C364.009 8.708 363.439 8.54 362.815 8.54C362.191 8.54 361.621 8.714 361.105 9.062C360.601 9.41 360.193 9.872 359.881 10.448C359.569 11.012 359.413 11.648 359.413 12.356ZM369.506 17V7.622H370.73V11.654H376.094V7.622H377.318V17H376.094V12.752H370.73V17H369.506ZM384.068 17.18C383.396 17.18 382.772 17.054 382.196 16.802C381.62 16.538 381.122 16.184 380.702 15.74C380.282 15.284 379.952 14.762 379.712 14.174C379.484 13.586 379.37 12.956 379.37 12.284C379.37 11.408 379.568 10.604 379.964 9.872C380.372 9.14 380.93 8.558 381.638 8.126C382.346 7.682 383.15 7.46 384.05 7.46C384.974 7.46 385.778 7.682 386.462 8.126C387.158 8.57 387.704 9.158 388.1 9.89C388.496 10.61 388.694 11.402 388.694 12.266C388.694 12.362 388.694 12.458 388.694 12.554C388.694 12.638 388.688 12.704 388.676 12.752H380.648C380.708 13.424 380.894 14.024 381.206 14.552C381.53 15.068 381.944 15.482 382.448 15.794C382.964 16.094 383.522 16.244 384.122 16.244C384.734 16.244 385.31 16.088 385.85 15.776C386.402 15.464 386.786 15.056 387.002 14.552L388.064 14.84C387.872 15.284 387.578 15.686 387.182 16.046C386.786 16.406 386.318 16.688 385.778 16.892C385.25 17.084 384.68 17.18 384.068 17.18ZM380.612 11.87H387.542C387.494 11.186 387.308 10.586 386.984 10.07C386.672 9.554 386.258 9.152 385.742 8.864C385.238 8.564 384.68 8.414 384.068 8.414C383.456 8.414 382.898 8.564 382.394 8.864C381.89 9.152 381.476 9.56 381.152 10.088C380.84 10.604 380.66 11.198 380.612 11.87Z" fill="black"/>
<circle cx="265" cy="12" r="2.75" stroke="black" stroke-width="0.5"/>
<line x1="98.4786" y1="21.5" x2="249.479" y2="21.5" stroke="black"/>
<path d="M99.8106 17V7.622H107.353V17H106.129V8.72H101.035V17H99.8106ZM114.055 17.18C113.383 17.18 112.759 17.054 112.183 16.802C111.619 16.538 111.127 16.184 110.707 15.74C110.299 15.284 109.981 14.768 109.753 14.192C109.525 13.604 109.411 12.986 109.411 12.338C109.411 11.666 109.525 11.042 109.753 10.466C109.981 9.878 110.305 9.362 110.725 8.918C111.145 8.462 111.637 8.108 112.201 7.856C112.777 7.592 113.401 7.46 114.073 7.46C114.745 7.46 115.363 7.592 115.927 7.856C116.491 8.108 116.983 8.462 117.403 8.918C117.823 9.362 118.147 9.878 118.375 10.466C118.603 11.042 118.717 11.666 118.717 12.338C118.717 12.986 118.603 13.604 118.375 14.192C118.147 14.768 117.823 15.284 117.403 15.74C116.995 16.184 116.503 16.538 115.927 16.802C115.363 17.054 114.739 17.18 114.055 17.18ZM110.653 12.356C110.653 13.052 110.803 13.688 111.103 14.264C111.415 14.828 111.829 15.278 112.345 15.614C112.861 15.938 113.431 16.1 114.055 16.1C114.679 16.1 115.249 15.932 115.765 15.596C116.281 15.26 116.695 14.804 117.007 14.228C117.319 13.64 117.475 13.004 117.475 12.32C117.475 11.624 117.319 10.988 117.007 10.412C116.695 9.836 116.281 9.38 115.765 9.044C115.249 8.708 114.679 8.54 114.055 8.54C113.431 8.54 112.861 8.714 112.345 9.062C111.841 9.41 111.433 9.872 111.121 10.448C110.809 11.012 110.653 11.648 110.653 12.356ZM124.832 17.18C124.148 17.18 123.518 17.054 122.942 16.802C122.378 16.538 121.88 16.178 121.448 15.722C121.028 15.266 120.698 14.744 120.458 14.156C120.23 13.568 120.116 12.944 120.116 12.284C120.116 11.396 120.314 10.586 120.71 9.854C121.106 9.122 121.658 8.54 122.366 8.108C123.074 7.676 123.89 7.46 124.814 7.46C125.69 7.46 126.464 7.664 127.136 8.072C127.808 8.468 128.306 9.008 128.63 9.692L127.442 10.07C127.178 9.59 126.806 9.218 126.326 8.954C125.858 8.678 125.336 8.54 124.76 8.54C124.136 8.54 123.566 8.702 123.05 9.026C122.534 9.35 122.12 9.794 121.808 10.358C121.508 10.922 121.358 11.564 121.358 12.284C121.358 12.992 121.514 13.634 121.826 14.21C122.138 14.786 122.552 15.248 123.068 15.596C123.584 15.932 124.154 16.1 124.778 16.1C125.186 16.1 125.576 16.028 125.948 15.884C126.332 15.74 126.662 15.548 126.938 15.308C127.226 15.056 127.418 14.786 127.514 14.498L128.72 14.858C128.552 15.302 128.27 15.704 127.874 16.064C127.49 16.412 127.034 16.688 126.506 16.892C125.99 17.084 125.432 17.18 124.832 17.18ZM130.625 17V7.622H131.885L135.611 14.084L139.355 7.622H140.561V17H139.391V9.458L136.007 15.326H135.215L131.795 9.458V17H130.625ZM147.26 17.18C146.588 17.18 145.964 17.054 145.388 16.802C144.824 16.538 144.332 16.184 143.912 15.74C143.504 15.284 143.186 14.768 142.958 14.192C142.73 13.604 142.616 12.986 142.616 12.338C142.616 11.666 142.73 11.042 142.958 10.466C143.186 9.878 143.51 9.362 143.93 8.918C144.35 8.462 144.842 8.108 145.406 7.856C145.982 7.592 146.606 7.46 147.278 7.46C147.95 7.46 148.568 7.592 149.132 7.856C149.696 8.108 150.188 8.462 150.608 8.918C151.028 9.362 151.352 9.878 151.58 10.466C151.808 11.042 151.922 11.666 151.922 12.338C151.922 12.986 151.808 13.604 151.58 14.192C151.352 14.768 151.028 15.284 150.608 15.74C150.2 16.184 149.708 16.538 149.132 16.802C148.568 17.054 147.944 17.18 147.26 17.18ZM143.858 12.356C143.858 13.052 144.008 13.688 144.308 14.264C144.62 14.828 145.034 15.278 145.55 15.614C146.066 15.938 146.636 16.1 147.26 16.1C147.884 16.1 148.454 15.932 148.97 15.596C149.486 15.26 149.9 14.804 150.212 14.228C150.524 13.64 150.68 13.004 150.68 12.32C150.68 11.624 150.524 10.988 150.212 10.412C149.9 9.836 149.486 9.38 148.97 9.044C148.454 8.708 147.884 8.54 147.26 8.54C146.636 8.54 146.066 8.714 145.55 9.062C145.046 9.41 144.638 9.872 144.326 10.448C144.014 11.012 143.858 11.648 143.858 12.356ZM156.309 17V8.72H152.961V7.622H160.881V8.72H157.533V17H156.309ZM167.335 17.18C166.555 17.18 165.853 16.976 165.229 16.568C164.617 16.16 164.131 15.656 163.771 15.056V20.834H162.547V7.622H163.645V9.44C164.017 8.852 164.515 8.378 165.139 8.018C165.763 7.646 166.429 7.46 167.137 7.46C167.785 7.46 168.379 7.598 168.919 7.874C169.459 8.138 169.927 8.498 170.323 8.954C170.719 9.41 171.025 9.932 171.241 10.52C171.469 11.096 171.583 11.696 171.583 12.32C171.583 13.196 171.403 14.006 171.043 14.75C170.695 15.482 170.203 16.07 169.567 16.514C168.931 16.958 168.187 17.18 167.335 17.18ZM166.993 16.1C167.509 16.1 167.971 15.998 168.379 15.794C168.787 15.578 169.135 15.29 169.423 14.93C169.723 14.57 169.951 14.168 170.107 13.724C170.263 13.268 170.341 12.8 170.341 12.32C170.341 11.816 170.251 11.336 170.071 10.88C169.903 10.424 169.657 10.022 169.333 9.674C169.009 9.326 168.637 9.05 168.217 8.846C167.797 8.642 167.341 8.54 166.849 8.54C166.537 8.54 166.213 8.6 165.877 8.72C165.541 8.84 165.217 9.014 164.905 9.242C164.605 9.458 164.353 9.704 164.149 9.98C163.945 10.256 163.819 10.55 163.771 10.862V13.742C163.963 14.186 164.221 14.588 164.545 14.948C164.869 15.296 165.241 15.578 165.661 15.794C166.093 15.998 166.537 16.1 166.993 16.1ZM177.707 17.18C177.035 17.18 176.411 17.054 175.835 16.802C175.259 16.538 174.761 16.184 174.341 15.74C173.921 15.284 173.591 14.762 173.351 14.174C173.123 13.586 173.009 12.956 173.009 12.284C173.009 11.408 173.207 10.604 173.603 9.872C174.011 9.14 174.569 8.558 175.277 8.126C175.985 7.682 176.789 7.46 177.689 7.46C178.613 7.46 179.417 7.682 180.101 8.126C180.797 8.57 181.343 9.158 181.739 9.89C182.135 10.61 182.333 11.402 182.333 12.266C182.333 12.362 182.333 12.458 182.333 12.554C182.333 12.638 182.327 12.704 182.315 12.752H174.287C174.347 13.424 174.533 14.024 174.845 14.552C175.169 15.068 175.583 15.482 176.087 15.794C176.603 16.094 177.161 16.244 177.761 16.244C178.373 16.244 178.949 16.088 179.489 15.776C180.041 15.464 180.425 15.056 180.641 14.552L181.703 14.84C181.511 15.284 181.217 15.686 180.821 16.046C180.425 16.406 179.957 16.688 179.417 16.892C178.889 17.084 178.319 17.18 177.707 17.18ZM174.251 11.87H181.181C181.133 11.186 180.947 10.586 180.623 10.07C180.311 9.554 179.897 9.152 179.381 8.864C178.877 8.564 178.319 8.414 177.707 8.414C177.095 8.414 176.537 8.564 176.033 8.864C175.529 9.152 175.115 9.56 174.791 10.088C174.479 10.604 174.299 11.198 174.251 11.87ZM186.561 17V8.72H183.213V7.622H191.133V8.72H187.785V17H186.561ZM192.781 17V7.622H194.005V10.934H196.435C197.503 10.934 198.307 11.21 198.847 11.762C199.399 12.302 199.675 13.016 199.675 13.904C199.675 14.48 199.555 15.002 199.315 15.47C199.075 15.938 198.721 16.31 198.253 16.586C197.797 16.862 197.221 17 196.525 17H192.781ZM194.005 16.028H196.363C196.855 16.028 197.251 15.932 197.551 15.74C197.851 15.536 198.073 15.278 198.217 14.966C198.361 14.642 198.433 14.294 198.433 13.922C198.433 13.562 198.367 13.232 198.235 12.932C198.115 12.62 197.899 12.374 197.587 12.194C197.287 12.002 196.867 11.906 196.327 11.906H194.005V16.028ZM205.276 17.054V15.938C205.6 15.938 205.888 15.854 206.14 15.686C206.392 15.506 206.614 15.206 206.806 14.786C207.01 14.366 207.172 13.79 207.292 13.058C207.412 12.314 207.49 11.372 207.526 10.232L207.634 7.622H213.718V17H212.494V8.72H208.714L208.678 10.34C208.63 11.636 208.528 12.722 208.372 13.598C208.216 14.462 207.994 15.146 207.706 15.65C207.43 16.154 207.088 16.514 206.68 16.73C206.272 16.946 205.804 17.054 205.276 17.054ZM220.42 17.18C219.748 17.18 219.124 17.054 218.548 16.802C217.984 16.538 217.492 16.184 217.072 15.74C216.664 15.284 216.346 14.768 216.118 14.192C215.89 13.604 215.776 12.986 215.776 12.338C215.776 11.666 215.89 11.042 216.118 10.466C216.346 9.878 216.67 9.362 217.09 8.918C217.51 8.462 218.002 8.108 218.566 7.856C219.142 7.592 219.766 7.46 220.438 7.46C221.11 7.46 221.728 7.592 222.292 7.856C222.856 8.108 223.348 8.462 223.768 8.918C224.188 9.362 224.512 9.878 224.74 10.466C224.968 11.042 225.082 11.666 225.082 12.338C225.082 12.986 224.968 13.604 224.74 14.192C224.512 14.768 224.188 15.284 223.768 15.74C223.36 16.184 222.868 16.538 222.292 16.802C221.728 17.054 221.104 17.18 220.42 17.18ZM217.018 12.356C217.018 13.052 217.168 13.688 217.468 14.264C217.78 14.828 218.194 15.278 218.71 15.614C219.226 15.938 219.796 16.1 220.42 16.1C221.044 16.1 221.614 15.932 222.13 15.596C222.646 15.26 223.06 14.804 223.372 14.228C223.684 13.64 223.84 13.004 223.84 12.32C223.84 11.624 223.684 10.988 223.372 10.412C223.06 9.836 222.646 9.38 222.13 9.044C221.614 8.708 221.044 8.54 220.42 8.54C219.796 8.54 219.226 8.714 218.71 9.062C218.206 9.41 217.798 9.872 217.486 10.448C217.174 11.012 217.018 11.648 217.018 12.356ZM229.469 17V8.72H226.121V7.622H234.041V8.72H230.693V17H229.469ZM235.69 17V7.622H236.914V10.934H239.038C240.106 10.934 240.91 11.21 241.45 11.762C242.002 12.302 242.278 13.016 242.278 13.904C242.278 14.48 242.158 15.002 241.918 15.47C241.678 15.938 241.324 16.31 240.856 16.586C240.4 16.862 239.824 17 239.128 17H235.69ZM236.914 16.028H238.966C239.458 16.028 239.854 15.932 240.154 15.74C240.454 15.536 240.676 15.278 240.82 14.966C240.964 14.642 241.036 14.294 241.036 13.922C241.036 13.562 240.97 13.232 240.838 12.932C240.718 12.62 240.502 12.374 240.19 12.194C239.89 12.002 239.47 11.906 238.93 11.906H236.914V16.028ZM243.988 17V7.64H245.212V17H243.988Z" fill="black"/>
<circle cx="83" cy="12" r="2.75" stroke="black" stroke-width="0.5"/>
<path d="M1.332 17V7.622H6.93V8.72H2.556V17H1.332ZM7.74492 17.054V15.938C8.06892 15.938 8.35692 15.854 8.60892 15.686C8.86092 15.506 9.08292 15.206 9.27492 14.786C9.47892 14.366 9.64092 13.79 9.76092 13.058C9.88092 12.314 9.95892 11.372 9.99492 10.232L10.1029 7.622H16.1869V17H14.9629V8.72H11.1829L11.1469 10.34C11.0989 11.636 10.9969 12.722 10.8409 13.598C10.6849 14.462 10.4629 15.146 10.1749 15.65C9.89892 16.154 9.55692 16.514 9.14892 16.73C8.74092 16.946 8.27292 17.054 7.74492 17.054ZM18.137 14.3C18.137 13.712 18.305 13.208 18.641 12.788C18.977 12.356 19.439 12.026 20.027 11.798C20.627 11.558 21.317 11.438 22.097 11.438C22.553 11.438 23.027 11.474 23.519 11.546C24.011 11.618 24.449 11.726 24.833 11.87V11.078C24.833 10.286 24.599 9.656 24.131 9.188C23.663 8.72 23.015 8.486 22.187 8.486C21.683 8.486 21.185 8.582 20.693 8.774C20.213 8.954 19.709 9.224 19.181 9.584L18.713 8.72C19.325 8.3 19.925 7.988 20.513 7.784C21.101 7.568 21.701 7.46 22.313 7.46C23.465 7.46 24.377 7.79 25.049 8.45C25.721 9.11 26.057 10.022 26.057 11.186V15.524C26.057 15.692 26.093 15.818 26.165 15.902C26.237 15.974 26.351 16.016 26.507 16.028V17C26.375 17.012 26.261 17.024 26.165 17.036C26.069 17.048 25.997 17.048 25.949 17.036C25.649 17.024 25.421 16.928 25.265 16.748C25.109 16.568 25.025 16.376 25.013 16.172L24.995 15.488C24.575 16.028 24.029 16.448 23.357 16.748C22.685 17.036 22.001 17.18 21.305 17.18C20.705 17.18 20.159 17.054 19.667 16.802C19.187 16.538 18.809 16.19 18.533 15.758C18.269 15.314 18.137 14.828 18.137 14.3ZM24.419 15.02C24.551 14.852 24.653 14.69 24.725 14.534C24.797 14.378 24.833 14.24 24.833 14.12V12.752C24.425 12.596 23.999 12.476 23.555 12.392C23.123 12.308 22.685 12.266 22.241 12.266C21.365 12.266 20.657 12.44 20.117 12.788C19.577 13.136 19.307 13.61 19.307 14.21C19.307 14.558 19.397 14.888 19.577 15.2C19.757 15.5 20.021 15.752 20.369 15.956C20.717 16.148 21.125 16.244 21.593 16.244C22.181 16.244 22.727 16.13 23.231 15.902C23.747 15.674 24.143 15.38 24.419 15.02ZM28.6836 17V7.622H33.3636C33.8916 7.622 34.3356 7.736 34.6956 7.964C35.0556 8.18 35.3256 8.462 35.5056 8.81C35.6976 9.158 35.7936 9.53 35.7936 9.926C35.7936 10.43 35.6736 10.886 35.4336 11.294C35.1936 11.69 34.8456 11.99 34.3896 12.194C34.9296 12.35 35.3676 12.632 35.7036 13.04C36.0396 13.448 36.2076 13.94 36.2076 14.516C36.2076 15.02 36.0816 15.458 35.8296 15.83C35.5896 16.202 35.2536 16.49 34.8216 16.694C34.4016 16.898 33.9156 17 33.3636 17H28.6836ZM29.8536 16.118H33.3276C33.6396 16.118 33.9216 16.04 34.1736 15.884C34.4376 15.716 34.6416 15.5 34.7856 15.236C34.9416 14.972 35.0196 14.696 35.0196 14.408C35.0196 14.096 34.9476 13.814 34.8036 13.562C34.6596 13.298 34.4676 13.088 34.2276 12.932C33.9876 12.776 33.7116 12.698 33.3996 12.698H29.8536V16.118ZM29.8536 11.852H33.0396C33.3516 11.852 33.6276 11.768 33.8676 11.6C34.1076 11.432 34.2936 11.216 34.4256 10.952C34.5576 10.688 34.6236 10.412 34.6236 10.124C34.6236 9.692 34.4796 9.314 34.1916 8.99C33.9156 8.666 33.5556 8.504 33.1116 8.504H29.8536V11.852ZM38.3164 17V7.622H39.5404V11.654H44.9044V7.622H46.1284V17H44.9044V12.752H39.5404V17H38.3164ZM48.0725 14.3C48.0725 13.712 48.2405 13.208 48.5765 12.788C48.9125 12.356 49.3745 12.026 49.9625 11.798C50.5625 11.558 51.2525 11.438 52.0325 11.438C52.4885 11.438 52.9625 11.474 53.4545 11.546C53.9465 11.618 54.3845 11.726 54.7685 11.87V11.078C54.7685 10.286 54.5345 9.656 54.0665 9.188C53.5985 8.72 52.9505 8.486 52.1225 8.486C51.6185 8.486 51.1205 8.582 50.6285 8.774C50.1485 8.954 49.6445 9.224 49.1165 9.584L48.6485 8.72C49.2605 8.3 49.8605 7.988 50.4485 7.784C51.0365 7.568 51.6365 7.46 52.2485 7.46C53.4005 7.46 54.3125 7.79 54.9845 8.45C55.6565 9.11 55.9925 10.022 55.9925 11.186V15.524C55.9925 15.692 56.0285 15.818 56.1005 15.902C56.1725 15.974 56.2865 16.016 56.4425 16.028V17C56.3105 17.012 56.1965 17.024 56.1005 17.036C56.0045 17.048 55.9325 17.048 55.8845 17.036C55.5845 17.024 55.3565 16.928 55.2005 16.748C55.0445 16.568 54.9605 16.376 54.9485 16.172L54.9305 15.488C54.5105 16.028 53.9645 16.448 53.2925 16.748C52.6205 17.036 51.9365 17.18 51.2405 17.18C50.6405 17.18 50.0945 17.054 49.6025 16.802C49.1225 16.538 48.7445 16.19 48.4685 15.758C48.2045 15.314 48.0725 14.828 48.0725 14.3ZM54.3545 15.02C54.4865 14.852 54.5885 14.69 54.6605 14.534C54.7325 14.378 54.7685 14.24 54.7685 14.12V12.752C54.3605 12.596 53.9345 12.476 53.4905 12.392C53.0585 12.308 52.6205 12.266 52.1765 12.266C51.3005 12.266 50.5925 12.44 50.0525 12.788C49.5125 13.136 49.2425 13.61 49.2425 14.21C49.2425 14.558 49.3325 14.888 49.5125 15.2C49.6925 15.5 49.9565 15.752 50.3045 15.956C50.6525 16.148 51.0605 16.244 51.5285 16.244C52.1165 16.244 52.6625 16.13 53.1665 15.902C53.6825 15.674 54.0785 15.38 54.3545 15.02ZM57.9351 17L60.7251 13.166C60.0891 13.07 59.5731 12.794 59.1771 12.338C58.7931 11.87 58.6011 11.234 58.6011 10.43C58.6011 9.89 58.7271 9.41 58.9791 8.99C59.2311 8.57 59.5851 8.234 60.0411 7.982C60.5091 7.73 61.0551 7.604 61.6791 7.604H65.2611V17H64.0371V13.364H61.9491L59.3031 17H57.9351ZM61.6611 12.428H64.0371V8.576H61.8771C61.2531 8.576 60.7551 8.756 60.3831 9.116C60.0111 9.464 59.8251 9.908 59.8251 10.448C59.8251 11 59.9751 11.468 60.2751 11.852C60.5871 12.236 61.0491 12.428 61.6611 12.428Z" fill="black"/>
</svg>
